# xmcd
#
# Track frame offsets:
#	150
#	15414
#	31924
#	49090
#	65012
#	76053
#	88514
#	101440
#	114276
#	129645
#	144412
#	161826
#	176176
#
# Disc length: 2560 seconds
#
# Revision: 0
# Processed by: cddbd v1.5.2PL0 Copyright (c) Steve Scherf et al.
# Submitted via: EasyCDDAExtractor 16.1.0.1
#
DISCID=a109fe0d
DTITLE=Seppo Alvari and The Clayhill Brothers - Matka on mun m‰‰r‰np‰‰
DYEAR=2011
DGENRE=Country
TTITLE0=Matka on mun m‰‰r‰np‰‰
TTITLE1=Elina
TTITLE2=Onni, Toivo, Usko ja Kaarina
TTITLE3=Meedio
TTITLE4=Heidi (j‰‰ kotia leikkim‰‰n!)
TTITLE5=Pilvimuurit
TTITLE6=Kotiolot
TTITLE7=Pane pois se pyssy, Risto!
TTITLE8=Nuo tyypit tuolla
TTITLE9=Kaupungintalon kello
TTITLE10=Susta p‰‰se en
TTITLE11=Vehreiden niittyjen luo
TTITLE12=Yˆperhonen
EXTD=
EXTT0=
EXTT1=
EXTT2=
EXTT3=
EXTT4=
EXTT5=
EXTT6=
EXTT7=
EXTT8=
EXTT9=
EXTT10=
EXTT11=
EXTT12=
PLAYORDER=
